<svg id="Layer_1" data-name="Layer 1" xmlns="http://www.w3.org/2000/svg" viewBox="0 0 353.88 114"><defs><style>.cls-1,.cls-7{fill:#fff;}.cls-1,.cls-2{fill-rule:evenodd;}.cls-2{fill:#252729;}.cls-3{fill:#45b3dc;}.cls-4{fill:#2ca8e0;}.cls-5{fill:#00ae6e;}.cls-6{fill:#20b574;}</style></defs><path class="cls-1" d="M65.37,33.05H48.89V80H65.37Z"/><path class="cls-2" d="M97.91,11H16.16C13.54,11,11,12.83,11,15.45V102H97.91A5.09,5.09,0,0,0,103,97.2V11ZM63,79H51V34H63Z"/><path class="cls-3" d="M16.16,114h93.16c2.61,0,4.68-2.77,4.68-5.39V15.45A4.46,4.46,0,0,0,109.32,11H103V97.2a5.09,5.09,0,0,1-5.09,4.8H11v6.61C11,111.23,13.55,114,16.16,114Z"/><path class="cls-4" d="M100.57,101.15a4.43,4.43,0,0,0,.54-.43A4.43,4.43,0,0,1,100.57,101.15Z"/><path class="cls-5" d="M4.75,102H11V15.45C11,12.83,13.54,11,16.16,11H103V4.05c0-2.62-2.47-4-5.09-4H4.75C2.14,0,0,1.43,0,4.05V97.2A4.8,4.8,0,0,0,4.75,102Z"/><path class="cls-6" d="M13.5,11.51a5.56,5.56,0,0,0-.54.42A5.56,5.56,0,0,1,13.5,11.51Z"/><rect class="cls-7" x="129.43" y="30.32" width="11.83" height="46.14"/><path class="cls-7" d="M222.61,76.46H210.79v-27c0-2.59-.9-8.78-8.69-8.78-5.21,0-9,3.59-9,8.78v27H181.31v-27c0-2.59-.81-8.78-8.61-8.78-5.28,0-8.95,3.59-8.95,8.78v27H151.91V49.76c0-11.73,8.16-20.6,20.79-20.6a18.54,18.54,0,0,1,14.7,6.54,19.2,19.2,0,0,1,14.7-6.54c12.89,0,20.51,8.51,20.51,20.6Z"/><path class="cls-7" d="M255.15,77.54c-14,0-23.75-10.75-23.75-24.1V9.81h11.92v24.9c3.49-3.67,8.06-5.37,13.44-5.37,12.18,0,22,10.84,22,24.1s-9.77,24.1-23.65,24.1m0-37.27c-6.55,0-11.83,5.91-11.83,13.26,0,7.16,5.28,13,11.83,13S267,60.87,267,53.53c0-7.62-5.29-13.26-11.82-13.26"/><rect class="cls-7" x="287.22" y="30.32" width="11.82" height="46.14"/><path class="cls-7" d="M353.88,53.44c0,13.8-10.48,24.1-23.3,24.1s-23.2-10.3-23.2-24.1,10.39-24.28,23.2-24.28,23.3,10.48,23.3,24.28M342,53.53c0-8-5.11-13.53-11.38-13.53S319.2,45.55,319.2,53.53c0,7.79,5.11,13.17,11.38,13.17S342,61.32,342,53.53"/></svg>